<?xml version="1.0" encoding="utf-8"?>
<!-- Generator: Adobe Illustrator 28.1.0, SVG Export Plug-In . SVG Version: 6.00 Build 0)  -->
<svg version="1.1" id="Layer_1" xmlns="http://www.w3.org/2000/svg" xmlns:xlink="http://www.w3.org/1999/xlink" x="0px" y="0px"
	 viewBox="0 0 851.1 177.1" style="enable-background:new 0 0 851.1 177.1;" xml:space="preserve">
<style type="text/css">
	.st0{fill:#FFFFFF;}
</style>
<g transform="matrix(1, 0, 0, 1, -143.60537719726562, -443.9015502929687)">
	<path class="st0" d="M496.3,485.3c14,0.1,40,0.2,46,0.4c5.9,0.2,10.9,0.3,10.9,0.3l32.6,1.5l0.4-9.6c0,0-24.4-2-47.1-3.3
		c-20.8-1.2-23.6-2.7-53.1-3.5C486,471,482.4,485.2,496.3,485.3z M565.9,534c0,0-5.5,0.1-12.2,0.4c-6.6,0.3-32.2,0.7-47.8,1
		c-15.6,0.3-13.7,13.8-13.7,13.8c33-1.2,33.3-1.7,57.8-2.6c25.4-1,52.5-2.3,52.5-2.3l-0.3-11.1L565.9,534z"/>
	<g>
		<path class="st0" d="M291.6,478.3c0-22-27.9-34.3-78.4-34.3c-34.8,0-65.4,10.6-68.7,12.5c-0.6,0.3-0.9,1.1-0.9,2.2
			c0,3.3,3,7.8,4.4,7.8c2.1,0,18.7-5.9,25-6.2c-2.2,11.2-4.1,29-4.1,54c0,25.8,1.1,35.6,1.9,39.4c0.3,2.1,4,3.5,7.1,3.5
			c3,0,5.9-1.4,5.9-4.7V547c0-5.2,0-13.6,0.3-23.3c3.5,0.3,7.3,0.5,11.1,0.5C236,524,291.6,508,291.6,478.3z M189.4,513.1h-1.1
			c-1.3,0-2.5,0-3.8-0.2c0.3-4.7,0.6-10.3,1.1-15c1.7-16.9,4.6-32.1,6.3-40.3c10.4-2.7,17.6-3,31.5-3c16.6,0,44.6,2.8,44.6,23.7
			C268.1,497.9,232.3,512.3,189.4,513.1z"/>
		<path class="st0" d="M484.4,533c0.7-14.4-18.3-21.7-18.3-32.8c0-1.7-1.6-1.9-4.9-1.9H461c-3.8,0-8.7,2.8-8.7,4.6
			c0,0.6,0.2,1.6,0.2,3c0,2.1-0.3,5.1-1.9,10.1c-1.8,5.8-5,11.2-6.9,14.5c-4.7,6.6-10.4,10.7-18.9,10.7c-5.1,0-7.8-3.6-7.8-3.8
			c16.8-6.3,16.8-19.9,16.8-19.9c0-6.8-5.2-12.3-13.8-12.3c-11.9,0-19.5,8.9-23.9,16.8c0.6-16,1.3-35.1,1.3-48.4
			c0-11.7-0.5-19.1-0.8-20.3c-0.5-0.8-3-2.7-5.5-2.7c-1.6,0-6,2.1-6.8,3.2c-0.9,2.1-1.9,18.8-1.9,33.5c0,18.7,0.6,33.5,1.2,44
			c-3.9,5.9-8,10.5-11.2,10.5c-1.1,0-1.6-1-1.6-2.1c0-4,7.3-17.1,7.3-22c0-5.1-3.3-7.8-9.7-7.8c-4,0-12.7-0.5-15.2-2.2
			c0-6.2-2.4-10.6-7.4-10.6c-4,0-6,5.1-6,8.1c0,7.6,4.4,10.1,5.4,10.9c-2,6.5-5.8,12.5-7.6,15.5c-3.8,5.7-7.8,10.1-11,10.1
			c-3.3,0-4.1-6-4.1-13.1c0-4.9,0.5-13.1,0.5-17.7c0-1.9-0.2-3.3-0.3-3.6c-0.8-1.6-3.2-2.1-6.6-2.1c-3.6,0-4.4,0.6-5.4,2.1
			c-0.2,0.3-0.3,0.9-0.5,2.1c-4-2.5-8.7-4.1-13.8-4.1c-13.9,0-25.3,10.4-25.3,23.3c0,12.8,11.4,23.3,25.3,23.3
			c6.3,0,12.2-2.5,16.6-6.3c2.2,4.1,5.7,6.3,10.6,6.3c12,0,19-14.6,21.2-19c0-0.1,0.1-0.2,0.1-0.3c2.7-4.9,5.2-10.8,5.9-13.3
			c1.3,0.6,7,1.7,10.6,1.9c0.9,0,1.7,0.5,1.7,1.3c0,0.3-0.2,0.6-0.3,1.1c-1.9,4.3-5.5,11.9-5.5,16.6c0,6.2,4.1,11.7,12.2,11.7
			c6.4,0,11.3-4.2,14.9-8.8c0.4,4.6,0.7,7,0.8,7c0.5,1.7,4.6,1.7,4.6,1.7s4.3,0,4.9-1.7v-0.5c0-0.5,0-1.4,0.2-2.7
			c1.6-13.8,9.8-30.1,20.1-30.1c4,0,5.7,2.2,5.7,5.1c0,8.4-16.9,14.7-18.7,15.7c7.8,14.2,21.5,14.2,21.5,14.2c15,0,23.7-13,26.8-19
			c0.1-0.2,0.2-0.4,0.3-0.6c2.6-4.8,5-10.5,5.7-13c0.6-2.2,1.3-4.1,1.3-4.1c4.3,7.8,12,10.1,12,17.9c0,4.6-2.2,7.5-7.3,7.9
			c-4.3,0.3-8.4-2.8-8.4-2.8l-4.5,7.3c0,0,8.5,8,19.2,5.2C481.8,547.1,484.1,538.3,484.4,533z M309.3,527.9v0.5
			c0,7.1-4,12.8-13,12.8c-5.7,0-10.4-5.9-10.4-12.8c0-7.1,4.8-12.8,10.4-12.8c8.7,0,12.7,5.4,13,12V527.9z"/>
	</g>
	<path class="st0" d="M956.7,523.4c-5.1,9.1-11.3,18.4-15.8,18.4c-2.7,0-3.5-4.6-3.5-10.5v-5.7c0-11.6,1-25.7,1.3-37.8
		c7.9,0.3,16,0.5,22.3,0.5c3.3,0,13.8-0.3,14.6-0.6c0.5-0.5,1.9-2.7,1.9-4.8c0-1.4-1.4-5.4-2.2-6.2c-1.6-0.8-18.5-1.6-24.4-1.6
		c-4.3,0-8.2,0-12,0.2v-1.7c0-11.7-0.3-19.2-0.8-20.3c-0.3-0.8-2.9-2.7-5.4-2.7c-1.6,0-6,2.1-7,3.2c-0.6,1.4-1.4,11.2-1.7,22.2
		c-11.7,0.8-18.5,1.7-18.7,1.7c-1.3,0.5-1.3,4.1-1.3,4.1s0,3.6,1.4,4.1c0.2,0.2,8.1,0.8,18.4,1.3v0.2c0,14.4,0.5,26.6,1,36.3
		c0,0.4,0,3.5,0.5,7.6c-3.9,6-8,10.6-11.3,10.6c-1.1,0-1.6-1-1.6-2.1c0-4,7.3-17.1,7.3-22c0-5.1-3.3-7.8-9.7-7.8
		c-4,0-12.7-0.5-15.2-2.2c0-6.2-2.4-10.6-7.4-10.6c-4,0-6,5.1-6,8.1c0,7.6,4.4,10.1,5.4,10.9c-2.7,8.7-8.6,16.5-8.6,17.6
		c0,1.4,0.6,6.3,2.1,6.3c3.5,0,10.9-16.3,12.2-20.9c1.3,0.6,7,1.7,10.6,1.9c1,0,1.7,0.5,1.7,1.3c0,0.3-0.2,0.6-0.3,1.1
		c-1.9,4.3-5.5,11.9-5.5,16.6c0,6.2,4.1,11.7,12.2,11.7c7.2,0,12.7-5.4,16.3-10.6c1.9,5.7,5.1,10.6,10.7,10.6
		c8.7,0,14.8-7.9,18.3-13.8c0,0,4.4-7.5,7.5-14.5c1.9-4.2,3.2-8.6,3.2-8.6c4.3,7.8,12,10.1,12,17.9c0,4.6-2.2,7.5-7.3,7.9
		c-4.3,0.3-8.4-2.8-8.4-2.8l-4.5,7.3c0,0,8.5,8,19.2,5.2c13.2-3.4,15.5-12.2,15.8-17.4c0.7-14.4-18.3-21.7-18.3-32.8
		c0-1.7-1.6-1.9-4.9-1.9h-0.2c-3.8,0-8.7,2.8-8.7,4.6c0,0.6,0.2,1.6,0.2,3C962,507.9,961,515.6,956.7,523.4z"/>
	<g>
		<path class="st0" d="M687.2,531.8c-7.3-2.4-15.5-5.2-25.2-8.7c37.6-3.8,78.6-19.2,78.6-44.8c0-22-27.9-34.4-78.4-34.4
			c-34.9,0-65.7,10.4-69,12.3c-0.6,0.3-1.1,2.8-1.1,5.2c-0.1,2.9,0,12.8,0,21.6c0,5.2,0,9.8,0.1,14c-2.4-1.3-5.2-2.1-8.1-2.1
			c-9.3,0-16.9,6.9-16.9,15.5c0,2,0.4,3.9,1.2,5.7c-1.7,1.9-3.2,3.1-4.6,3.1c-6.1,0,1.9-24.3-9.5-24.3c-7.3,0-12.7,9.1-15.8,15.8
			c0.2-3.2,0.4-6.3,0.4-8.8c0-1.5-0.3-5.8-0.5-6.2c-0.3-0.2-1.8-0.7-3.5-0.7h-0.2c-1.1,0-4,0.5-4.6,0.9c-0.5,0.6-1.2,7.8-1.2,10.2
			c0,2.6,0.1,4.9,0.2,7.1c-2.4,3.5-4.9,6.1-6.9,6.1c-2.2,0-2.7-4-2.7-8.7c0-3.3,0.3-8.7,0.3-11.8c0-1.3-0.1-2.2-0.2-2.4
			c-0.5-1.1-2.1-1.4-4.4-1.4c-2.4,0-2.9,0.4-3.6,1.4c-0.1,0.2-0.2,0.6-0.3,1.4c-2.6-1.7-5.8-2.7-9.2-2.7c-9.3,0-16.9,6.9-16.9,15.5
			c0,8.5,7.6,15.5,16.9,15.5c4.2,0,8.1-1.7,11.1-4.2c1.5,2.7,3.8,4.2,7.1,4.2c4.1,0,7.3-2.5,9.7-5.4c0.5,3.1,0.9,4.8,1,4.9
			c0.3,0.5,3.1,0.5,3.1,0.5s2.8,0,3.2-0.5l0.1-0.1c0.5-1.6,7.4-20.9,12.5-20.9c5.4,0-2.8,21.5,12,21.5c4,0,7.2-2.5,9.5-5.3
			c3.1,3.3,7.7,5.3,12.7,5.3c4.4,0,8.3-1.8,11.4-4.4c1.3,2.5,3.2,4.4,6,4.4c4.3,0,7.6-2.9,10-6c0-0.9,0-1.9,0-2.8c0-1.9,0-4,0.2-6
			c-2.8,4.5-5.9,8.1-8.2,8.1c-1.8,0-2.3-3.1-2.3-7c0-2.4,0.1-3.8,0.1-3.8c0.3-11,0.8-25.1,0.8-34.6c0-3.5,0-6.4-0.1-8.7
			c6-1.7,15.6-4.7,20.1-5c-2.2,11.2-4.1,29-4.1,54c0,25.8,1.1,35.6,1.9,39.4c0.3,2.1,4,3.5,7.1,3.5c3,0,5.9-1.4,5.9-4.8V547
			c0-5.2,0-13.5,0.3-23c9,4.9,24.2,11.6,39.9,17.6c21.9,8.4,44.5,15.7,51.7,15.7c0.5,0,1-0.2,1.3-0.2c4.8-1,7.8-3.8,7.8-8.6
			C733.7,543.2,726,544.6,687.2,531.8z M510.7,510.1v0.3c0,4.7-2.6,8.5-8.6,8.5c-3.8,0-7-3.9-7-8.5c0-4.7,3.2-8.5,7-8.5
			c5.8,0,8.4,3.6,8.6,8V510.1z M584,518.9c-3.8,0-7-3.9-7-8.5c0-4.7,3.2-8.5,7-8.5c6,0,8.6,3.8,8.6,8.5
			C592.6,515,590,518.9,584,518.9z M637.2,513.1c-1.3,0-2.5,0-3.8-0.2c0.3-4.8,0.6-10.3,1.1-15c1.7-16.9,4.6-32.1,6.3-40.4
			c10.5-2.7,17.6-3,31.5-3c16.6,0,44.7,2.9,44.7,23.8c0,19.6-35.8,34-78.8,34.8H637.2L637.2,513.1z"/>
		<path class="st0" d="M850,505.2c-13.9,0-25.4,10.5-25.4,23.3c0,0.7,0,1.4,0.1,2.1c-2.8,3.9-6,6.9-10.1,8.7c1.3-1.6,3-4.4,3-8.4
			c0-14.4-16.3-19.5-16.3-30.6c0-1.7-1.6-1.9-4.9-1.9h-0.1c-3.8,0-8.7,2.8-8.7,4.6c0,0.6,0.2,1.6,0.2,3c0,2.1-0.3,5.1-1.9,10.1
			c-1.7,5.6-4.8,10.8-6.7,14.1c-4.9,6.8-10.7,11.1-20.4,11.1c-5.9,0-10.9-2.9-12.4-8.9c3.3,1.1,6.7,1.7,10,1.7
			c9.8,0,18.5-5.1,18.5-14.4c0-8.9-8.2-14.6-18.5-14.6c-13.9,0-25.4,10.5-25.4,23.3c0,9.2,7.3,23.3,27.7,23.3
			c15.1,0,23.8-13,26.8-19c0.1-0.2,0.2-0.4,0.3-0.7c2.6-4.8,5-10.5,5.7-13c0.6-2.2,1.3-4.1,1.3-4.1c4.3,7.8,12,10.1,12,17.9
			c0,4.6-3.5,8.6-8.2,8.6c-4.3,0-7.3-3.3-8.6-3.3c-0.6,0-0.8,1.4-0.8,3.2c0,1.9,0.3,4.1,0.8,4.9c0.6,0.8,3.5,5.5,16.5,5.5
			c10.8,0,18.4-6.7,22.9-12.7c4.2,7.5,12.8,12.7,22.6,12.7c14.1,0,25.5-10.5,25.5-23.3C875.6,515.7,864.1,505.2,850,505.2z
			 M756.4,515.7c3.5,0,6.8,1.4,6.8,5.7c0,4.6-6.8,6.2-12.2,6.2c-2.1,0-4-0.2-5.1-0.6C746.6,520.6,751.2,515.7,756.4,515.7z
			 M850,541.3c-5.7,0-10.5-5.9-10.5-12.8c0-7.1,4.8-12.8,10.5-12.8c5.9,0,10.6,5.7,10.6,12.8C860.7,535.4,855.9,541.3,850,541.3z"/>
	</g>
</g>
<g transform="matrix(1, 0, 0, 1, -143.60537719726562, -443.9015502929687)">
	<path class="st0" d="M393.1,600.9c-0.9-1.6-2-2.5-4-2.5c-2.1,0-3.8,1.5-3.8,3.6c0,2,2.1,2.9,3.6,3.6l1.5,0.7c3,1.3,5.6,2.8,5.6,6.5
		c0,4.1-3.3,7.2-7.3,7.2c-3.7,0-6.5-2.4-7.2-6l2.5-0.7c0.3,2.4,2.2,4.3,4.6,4.3c2.5,0,4.8-1.9,4.8-4.5c0-2.7-2.1-3.6-4.3-4.6
		l-1.4-0.6c-2.7-1.2-5-2.6-5-5.9c0-3.6,3-5.9,6.5-5.9c2.6,0,4.8,1.3,6,3.6L393.1,600.9z"/>
	<path class="st0" d="M434.4,601.4c-1.8-1.9-4.4-3.1-7.1-3.1c-5.2,0-9.4,4.5-9.4,9.6c0,5.1,4.2,9.6,9.4,9.6c2.6,0,5.2-1.2,7-3.1v3.2
		c-2,1.4-4.5,2.3-6.9,2.3c-6.6,0-12.1-5.3-12.1-11.9c0-6.6,5.4-12.1,12.1-12.1c2.6,0,4.9,0.7,6.9,2.3v3.2H434.4z"/>
	<path class="st0" d="M459.1,613l-2.8,6.6h-2.8l10.7-24.3l10.4,24.3h-2.9L469,613H459.1z M464.1,601.3l-4,9.3h7.8L464.1,601.3z"/>
	<path class="st0" d="M494.2,595.4l18.1,19v-18h2.6v24.3l-18.1-18.9v17.9h-2.6L494.2,595.4L494.2,595.4z"/>
	<path class="st0" d="M536.6,596.4h4.4c3.5,0,6.3,0.5,9.1,2.8c2.6,2.3,3.8,5.4,3.8,8.8c0,3.4-1.2,6.4-3.8,8.7
		c-2.8,2.5-5.5,2.9-9.2,2.9h-4.3V596.4z M541.1,617.2c2.8,0,5.2-0.4,7.3-2.4c1.9-1.8,2.9-4.2,2.9-6.8s-1-5.2-3-7
		c-2.1-1.9-4.5-2.2-7.2-2.2h-1.9v18.4H541.1z"/>
	<path class="st0" d="M577.1,619.6h-2.6v-23.2h2.6V619.6z"/>
	<path class="st0" d="M598.8,595.4l18.1,19v-18h2.6v24.3l-18.1-18.9v17.9h-2.6V595.4z"/>
	<path class="st0" d="M644.7,613l-2.8,6.6h-2.8l10.7-24.3l10.4,24.3h-2.9l-2.7-6.6H644.7z M649.8,601.3l-4,9.3h7.8L649.8,601.3z"/>
	<path class="st0" d="M683.9,614.1l6.6-17.7h2.8l-9.4,24.6l-9.4-24.6h2.8L683.9,614.1z"/>
	<path class="st0" d="M715.4,619.6h-2.6v-23.2h2.6V619.6z"/>
	<path class="st0" d="M740.5,613l-2.8,6.6h-2.8l10.7-24.3l10.4,24.3h-2.9l-2.7-6.6H740.5z M745.5,601.3l-4,9.3h7.8L745.5,601.3z"/>
</g>
</svg>
